<svg width="640" height="725" viewBox="0 0 640 725" fill="none" xmlns="http://www.w3.org/2000/svg">
<path d="M554.539 657.862V648.445" stroke="#00AED9" stroke-width="0.89057" stroke-linecap="round" stroke-linejoin="round"/>
<path d="M574.594 666.181L581.279 659.502" stroke="#00AED9" stroke-width="0.89057" stroke-linecap="round" stroke-linejoin="round"/>
<path d="M582.923 686.224H592.347" stroke="#00AED9" stroke-width="0.89057" stroke-linecap="round" stroke-linejoin="round"/>
<path d="M574.594 706.263L581.279 712.943" stroke="#00AED9" stroke-width="0.89057" stroke-linecap="round" stroke-linejoin="round"/>
<path d="M554.539 714.583V724" stroke="#00AED9" stroke-width="0.89057" stroke-linecap="round" stroke-linejoin="round"/>
<path d="M534.484 706.263L527.799 712.943" stroke="#00AED9" stroke-width="0.89057" stroke-linecap="round" stroke-linejoin="round"/>
<path d="M526.156 686.224H516.731" stroke="#00AED9" stroke-width="0.89057" stroke-linecap="round" stroke-linejoin="round"/>
<path d="M534.484 666.181L527.799 659.502" stroke="#00AED9" stroke-width="0.89057" stroke-linecap="round" stroke-linejoin="round"/>
<path d="M628.201 498.218V476.565" stroke="#00AED9" stroke-width="0.89057" stroke-linecap="round" stroke-linejoin="round"/>
<path d="M617.365 487.394H639.037" stroke="#00AED9" stroke-width="0.89057" stroke-linecap="round" stroke-linejoin="round"/>
<path d="M360.27 142.675L373.068 122.342" stroke="#00AED9" stroke-width="0.89057" stroke-linecap="round" stroke-linejoin="round"/>
<path d="M356.493 126.107L376.843 138.916" stroke="#00AED9" stroke-width="0.89057" stroke-linecap="round" stroke-linejoin="round"/>
<path d="M76.5844 592.807C76.0937 593.781 75.8598 594.862 75.9043 595.949C75.9488 597.036 76.2704 598.094 76.839 599.025C77.4077 599.956 78.205 600.73 79.1567 601.273C80.1084 601.817 81.1836 602.114 82.282 602.135H136.351C137.452 602.126 138.532 601.835 139.486 601.291C140.44 600.747 141.237 599.969 141.798 599.031C142.36 598.092 142.667 597.027 142.69 595.936C142.714 594.846 142.452 593.768 141.932 592.807L114.956 542.6C114.446 541.497 113.627 540.563 112.596 539.908C111.565 539.253 110.366 538.904 109.142 538.904C107.917 538.904 106.719 539.253 105.688 539.908C104.657 540.563 103.838 541.497 103.328 542.6L76.5844 592.807Z" stroke="#FF4064" stroke-width="0.89057" stroke-linecap="round" stroke-linejoin="round"/>
<path d="M171.528 117.665C163.437 115.227 155.906 111.218 149.365 105.869C142.825 100.52 137.402 93.9344 133.408 86.489C129.414 79.0436 126.927 70.8842 126.088 62.4772C125.249 54.0702 126.076 45.5803 128.52 37.4928C132.545 24.4868 141.529 13.5877 153.529 7.15265C165.529 0.717576 179.579 -0.736236 192.643 3.10563C197.831 4.6686 202.66 7.23961 206.852 10.6714C211.045 14.1031 214.52 18.3282 217.077 23.1046C219.634 27.881 221.223 33.1149 221.754 38.5064C222.285 43.8979 221.747 49.3412 220.17 54.5245C217.64 62.8858 211.895 69.9013 204.195 74.0298C196.495 78.1582 187.471 79.062 179.106 76.5426C175.795 75.5428 172.713 73.8998 170.038 71.7076C167.363 69.5154 165.147 66.8171 163.516 63.7672C161.886 60.7173 160.873 57.3758 160.536 53.934C160.199 50.4922 160.545 47.0178 161.553 43.7097C162.346 41.0606 163.655 38.5943 165.404 36.4526C167.153 34.3109 169.309 32.5361 171.747 31.2301C174.184 29.9242 176.856 29.1129 179.609 28.8429C182.361 28.5729 185.14 28.8496 187.785 29.6569C189.908 30.2869 191.885 31.3308 193.602 32.7286C195.32 34.1263 196.743 35.8502 197.791 37.8008C198.839 39.7514 199.49 41.8901 199.707 44.0935C199.924 46.2969 199.702 48.5215 199.055 50.6389C198.008 53.9825 195.693 56.7832 192.606 58.4414C189.519 60.0996 185.905 60.4835 182.539 59.5109" stroke="#48CF3E" stroke-width="0.89057" stroke-linecap="round" stroke-linejoin="round"/>
<path d="M1.09082 188.02H9.5938C10.8258 188.019 12.0453 188.266 13.1805 188.747C14.3157 189.227 15.3436 189.93 16.2034 190.815C17.0632 191.7 17.7376 192.749 18.1868 193.9C18.636 195.05 18.8509 196.28 18.8187 197.515V205.562C18.983 207.931 20.0488 210.146 21.7958 211.749C23.5428 213.351 25.8372 214.219 28.2041 214.172H35.8247C38.2713 214.172 40.6177 215.147 42.3477 216.882C44.0777 218.618 45.0496 220.971 45.0496 223.426V231.472C45.0389 232.691 45.2702 233.899 45.7301 235.026C46.1899 236.154 46.8689 237.178 47.7277 238.04C48.5865 238.901 49.6077 239.582 50.7317 240.044C51.8558 240.505 53.0602 240.737 54.2746 240.726H61.8952C64.3418 240.726 66.6882 241.701 68.4182 243.437C70.1482 245.172 71.1201 247.526 71.1201 249.98V258.027C71.1411 260.475 72.1197 262.816 73.8452 264.547C75.5707 266.278 77.9049 267.26 80.345 267.281H88.3667" stroke="#FFB700" stroke-width="0.89057" stroke-linecap="round" stroke-linejoin="round"/>
</svg>
