<svg id="One_line_x2C__cmyk_x2C__positive" xmlns="http://www.w3.org/2000/svg" viewBox="0 0 103.5 33.5"><style>.st0{fill:#005ab4}.st1{fill:#fedf01}.st2{fill:#fff}</style><g id="Layer_2_4_"><path class="st0" d="M25.5 29.4c0 1.1-.5 1.7-1.3 2.1-3.4 1.3-7.5 2-11.4 2-3.9 0-8-.7-11.4-2-.9-.3-1.3-1-1.3-2.1V0h25.5v29.4z"/><path class="st1" d="M6.8 17.9c-3.5-2.2-4.7-3.2-4.8-4.6 0-.3 0-.8.2-1.1l-.3-.2c-.3.4-.4 1-.4 1.5 0 .8.3 1.5.6 2 .5.8 1 1.2 2.3 2.2 1.4 1 2.3 2.3 2.9 3.5h.2v-1.4c1.9 1.1 3.5 2.1 4.3 3.8h.2c-.4-1.9-1.4-3.3-5.2-5.7zM23.1 23.6h-.2c0-1.3-1.2-1.7-2.5-1.7h-4c.1.6.2 1.4.1 2.1h-.2c-.4-3-2-4.4-4.4-6v1.3h-.2c-.6-1.4-2-2.7-3.3-3.6-.3-.2-.7-.5-1.1-.8v1.5h-.1c-.5-1.4-1.5-2.5-3-3.8-1.5-1.4-2.2-2.2-2.5-3.2-.2-.6-.3-1-.3-1.7 0-1.1.6-2.1 1.3-2.5v.5c-.3.6-.5 1.2-.5 1.8 0 .6.1 1.2.4 1.7.9 1.6 3.8 3.7 5.6 4.9 5.7 3.8 6.9 4.5 7.8 6.6.1.2.2.5.3.9.8-.1 3.8-.6 4.4-.7.1 0 .3 0 .4-.1.5-.3.9-.7 1.3-1.3l-2.2-.2c-.1.3-.2.5-.3.6h-.2c.1-.2.1-.4.2-.7h-.6v-.1l.6-.1c.1-.6.2-1.2.2-1.8l-2.8-.2v.8h-.2c-.1-.3-.1-.6-.1-.8h-.6.6c-.1-.7-.1-1.4-.1-2l-1.6-.1c.1.1.2.3.2.4.3 1 .3 2.1.2 2.6h-.2c0-.6-.2-1.4-.4-1.8-.4-1.1-1.5-2-3.1-3.1v1.3h-.2c-.6-1.8-2-2.8-4-3.8C6 9.7 5.5 8.6 5.6 7l.6.3c.1 1.5 1.3 2.4 2.6 2.4.7 0 1.4-.1 2.1-.2.9-.2 1.8-.4 2.6-.1v-.9h-.6c-.2.2-.6.4-1.2.4-.7 0-2-.4-2-1.8 0-1.2 1-1.4 1.9-1.4h1.5c.2 0 .3 0 .4-.1.1-.1.1-.2.1-.3v-.6-.9h-4v1.6l-1.5-.7v-.4h.7v-.6H6.1V2.4h-.9c-.5 0-1 .3-1.1 1 0 .6.3 1.2.9 1.2h.1v.8H5c-1.1 0-2-.9-2-2 0-1.2 1-2.1 2.2-2.1h1.9v1.3h7.5v2.9c0 .2-.1.6-.5.9-.2.2-.6.2-1.1.2h-1.4c-.9-.1-1.1.3-1.1.6v.2c.5-.4 1-.6 1.7-.4 1.1.4 1.5.4 2-.1l.1.1c-.1.1-.2.2-.3.4h.5v3l1.7-1H21s2 1.1 2.4 1.2c.3.2.4.3.5.6 0 .2 0 .5-.1.7-.1.1-.6 1-.9 1.5.8.9 1.4 2.1 1.4 3.5 0 1.2-.5 2.8-2 4 .7.2 1.1.6 1.4 1l-.6 1.7zm-10.7-16c-.7-.1-1-.1-1.4.3.2.1.4.1.7.1.4 0 .6-.2.7-.4zm-.4 4.3l1.9-1.1c-.4-.2-.8-.3-1.3-.3-.7 0-1.8.3-2.3.4.3 0 1.2.6 1.7 1zm8.5.1l.3-.4-.4-.5.1-.1 1.1.6-.2.8c.2.1.4.2.6.4l.7-1.2-1.9-1h-4.2l-3.4 2.1c.6.4 1.2.9 1.7 1.4.9-1.3 2.5-2.2 4.1-2.2.4-.2 1-.1 1.5.1zm-.4 4.8c0-.6-.1-1.2-.2-1.7l-2.2-.1c-.2.7-.3 1.3-.3 2l2.7-.2zm.8-1.7c.1.6.1 1.1 0 1.6l2.2-.1c-.1-.5-.2-1-.4-1.4l-1.8-.1zm-1.1-.7c-.2-.8-.5-1.4-.7-1.6h-.8c-.2.6-.4 1.1-.6 1.7l2.1-.1zm.6-1.4c.2.4.3.9.4 1.3l1.4-.1c-.6-.5-1.1-.9-1.8-1.2zm2.5 5.8c.2-.4.3-.8.3-1.2l-2.3-.1c-.1.6-.3 1.2-.5 1.7l2.5-.4zm-5.7-5.7c-.8.3-1.3.8-1.8 1.5l1.6-.1c0-.7.1-1.1.2-1.4z"/><g><path class="st2" d="M14.3 27c.6-.1 1.3-.6 1.3-1.4 0-.7-.3-1.4-2.3-1.4H9.9v.1c.1 0 .3.1.4.2.2.2.3.6.3 1v5.1h2.8c1.5 0 2.7-.6 2.7-1.9-.1-1.2-1-1.7-1.8-1.7zm-1.5-2.2c.7 0 1.2.2 1.2.9 0 .8-.7 1-1.4 1H12v-2c0 .1.4.1.8.1zm.1 5.1H12v-2.6h.9c1.2 0 1.6.4 1.6 1.2 0 1-.6 1.4-1.6 1.4zM7.3 30.5h1.8l-2.3-3c.9-.3 1.6-.8 1.6-1.7 0-1.1-.7-1.7-2.4-1.7H2.5v.1c.1 0 .3.1.4.2.2.2.3.6.3 1.1v4.9h1.5v-2.8h.5l2.1 2.9zm-2.6-5.7h1c.8 0 1.3.2 1.3 1.1 0 .8-.6 1.2-1.5 1.2h-.8v-2.3zM21.9 25c.4.2.5.5.5.5h.1l.3-1.1s-.6-.4-1.9-.4c-2.1 0-3.6 1-3.6 3.3 0 2.6 1.8 3.2 3.5 3.2 1.5 0 2.1-.5 2.1-.5v-.7s-.5.5-1.7.5c-.9 0-2.3-.4-2.4-2.5 0-1.9.8-2.6 2-2.6.6.1.9.2 1.1.3z"/></g></g><path class="st0" d="M27.6 33c-.9 0-1.6-.7-1.6-1.6 0-.9.7-1.6 1.6-1.6.9 0 1.6.7 1.6 1.6-.1.9-.8 1.6-1.6 1.6zm0-2.9c-.7 0-1.2.6-1.2 1.3 0 .7.5 1.3 1.2 1.3s1.2-.6 1.2-1.3c0-.7-.6-1.3-1.2-1.3zm.1.4c.3 0 .5.2.5.5s-.2.5-.4.5c0 0 .1 0 .1.1.1.1.4.7.4.7h-.4c-.1-.1-.1-.2-.2-.3-.2-.3-.2-.4-.3-.4h-.1v.7H27v-1.8h.7zm-.4.8h.1c.2 0 .2 0 .3-.1 0 0 .1-.1.1-.2s0-.2-.1-.2H27.4v.5zM38.2 0h.8v33.5h-.8zM49.5 10.8c-.3-.6-.5-.8-.8-1.4-.8-1.5-1.1-1.9-1.4-2-.1 0-.2-.1-.3-.1v3.5h-1.6V2.5h3.1c1.5 0 2.4 1 2.4 2.4 0 1.2-.8 2.3-1.9 2.3.2.1.2.2.3.3.5.6 2 3.2 2 3.2h-1.8zm-.9-6.9c-.2-.1-.5-.1-.9-.1H47v2.3h.6c.7 0 1-.1 1.3-.3.2-.2.3-.5.3-.8 0-.6-.2-.9-.6-1.1zM56.8 10.1c-.5.5-1.1.9-2 .9-1.7 0-2.8-1.2-2.8-3.2 0-1.9 1.1-3.2 2.8-3.2.9 0 1.6.3 2.1.9.5.6.7 1.2.7 2.2 0 1.1-.3 1.8-.8 2.4zm-1.3-4c-.2-.2-.4-.3-.7-.3-.4 0-.7.2-.8.6-.1.3-.2.8-.2 1.4 0 .7.1 1.2.2 1.5.1.3.5.5.8.5.7 0 1-.6 1-2.1 0-.8-.1-1.4-.3-1.6zM61.9 10.9c-.4 1.2-.7 1.7-1.2 2-.4.3-.9.5-1.5.6l-.6-1.1c.3-.1.8-.2 1-.4.2-.1.3-.3.5-.5.2-.3.2-.4.3-.7H60c-.2-.6-.5-1.5-.6-1.7L58 4.8l1.6-.2 1.1 3.6c.1.4.3 1.2.3 1.3 0 0 .1-.7.2-1 0-.2.1-.6.2-.9l.9-2.9H64l-2.1 6.2zM69.3 11.1c-.4-.2-.7-.4-.9-.7-.1.1-.3.2-.4.3-.3.2-.7.3-1.2.3-1.4 0-2.1-.7-2.1-1.9 0-1.4 1-2.1 3-2.1h.4v-.2c0-.7-.1-.9-.7-.9-.5 0-1.1.3-1.8.7l-.7-1.2c.3-.2.6-.3 1-.5.6-.3 1.1-.4 1.7-.4 1 0 1.7.4 2 1.1.1.3.1.4.1 1.1v2.1c0 .7 0 1 .6 1.4l-1 .9zm-1.4-3c-1.1 0-1.5.2-1.5.9 0 .5.3.8.7.8.3 0 .6-.2.8-.4V8.1zM72.9 10.9c-.7 0-1.2-.3-1.4-.8-.1-.3-.1-.5-.1-1.4V4.1c0-.8 0-1.3-.1-1.8l1.6-.4c.1.4.1.8.1 1.6v4.8c0 1.1 0 1.2.1 1.4.1.1.2.2.3.2h.2l.3 1h-1zM81.5 10.8h-3.7V2.5h2.8c1 0 1.5.2 2.1.6.5.4.7.9.7 1.5s-.2 1-.6 1.4c-.2.2-.4.3-.8.4 1 .3 1.7 1 1.7 2.1s-.8 2.2-2.2 2.3zM81.1 4c-.1-.1-.3-.1-.7-.1h-1v1.9h1c.4 0 .6 0 .7-.1.2-.1.4-.5.4-.9.1-.3-.1-.7-.4-.8zm.1 3.3c-.2-.1-.3-.1-.6-.1h-1v2.3h1.1c.3 0 .6 0 .8-.2.3-.2.4-.6.4-1-.1-.5-.4-.9-.7-1zM89.3 11.1c-.4-.2-.7-.4-.9-.7-.1.1-.3.2-.4.3-.3.2-.7.3-1.2.3-1.4 0-2.1-.7-2.1-1.9 0-1.4 1-2.1 3-2.1h.4v-.2c0-.7-.1-.9-.7-.9-.5 0-1.1.3-1.8.7l-.7-1.2c.3-.2.6-.3 1-.5.6-.3 1.1-.4 1.7-.4 1 0 1.7.4 2 1.1.1.3.1.4.1 1.1v2.1c0 .7 0 1 .6 1.4l-1 .9zm-1.3-3c-1.1 0-1.5.2-1.5.9 0 .5.3.8.7.8.3 0 .6-.2.8-.4V8.1zM94.6 10.8v-4c0-.7-.1-.9-.5-.9-.3 0-.7.2-1.1.6v4.3h-1.6V6.4c0-.5-.1-1-.2-1.4l1.4-.4c.1.3.2.5.2.8.2-.3.4-.4.7-.6.3-.2.7-.3 1.1-.3.7 0 1.3.4 1.5.9.1.2.1.5.1.9v4.5h-1.6zM97.9 10.8V3.9c0-.5 0-1-.1-1.6l1.6-.4c.1.5.1 1.2.1 2v6.9h-1.6zm3.7 0l-2.1-3.5 1.6-2.7h1.9l-2 2.6 2.4 3.6h-1.8z"/></svg>
